<mxfile host="app.diagrams.net" modified="2024-01-14T15:19:36.969Z" agent="Mozilla/5.0 (Windows NT 10.0; Win64; x64) AppleWebKit/537.36 (KHTML, like Gecko) Chrome/120.0.0.0 Safari/537.36 Edg/120.0.0.0" etag="ZfXgMKaD27lx8HP3yVbq" version="22.1.18" type="github">
  <diagram name="第 1 页" id="O-Z7q1uUZmjmJFf9CDRZ">
    <mxGraphModel dx="996" dy="601" grid="1" gridSize="10" guides="1" tooltips="1" connect="0" arrows="1" fold="1" page="1" pageScale="1" pageWidth="827" pageHeight="1169" math="0" shadow="0">
      <root>
        <mxCell id="0" />
        <mxCell id="1" parent="0" />
        <mxCell id="kQFly5nOHBlgn8fQaP0r-1" value="" style="shape=table;startSize=0;container=1;collapsible=0;childLayout=tableLayout;" vertex="1" parent="1">
          <mxGeometry x="110" y="170" width="600" height="280" as="geometry" />
        </mxCell>
        <mxCell id="kQFly5nOHBlgn8fQaP0r-2" value="" style="shape=tableRow;horizontal=0;startSize=0;swimlaneHead=0;swimlaneBody=0;strokeColor=inherit;top=0;left=0;bottom=0;right=0;collapsible=0;dropTarget=0;fillColor=none;points=[[0,0.5],[1,0.5]];portConstraint=eastwest;" vertex="1" parent="kQFly5nOHBlgn8fQaP0r-1">
          <mxGeometry width="600" height="40" as="geometry" />
        </mxCell>
        <mxCell id="kQFly5nOHBlgn8fQaP0r-3" value="boot&lt;span style=&quot;white-space: pre;&quot;&gt;&#x9;&lt;/span&gt;" style="shape=partialRectangle;html=1;whiteSpace=wrap;connectable=0;strokeColor=inherit;overflow=hidden;fillColor=none;top=0;left=0;bottom=0;right=0;pointerEvents=1;" vertex="1" parent="kQFly5nOHBlgn8fQaP0r-2">
          <mxGeometry width="60" height="40" as="geometry">
            <mxRectangle width="60" height="40" as="alternateBounds" />
          </mxGeometry>
        </mxCell>
        <mxCell id="kQFly5nOHBlgn8fQaP0r-4" value="sb" style="shape=partialRectangle;html=1;whiteSpace=wrap;connectable=0;strokeColor=inherit;overflow=hidden;fillColor=none;top=0;left=0;bottom=0;right=0;pointerEvents=1;" vertex="1" parent="kQFly5nOHBlgn8fQaP0r-2">
          <mxGeometry x="60" width="60" height="40" as="geometry">
            <mxRectangle width="60" height="40" as="alternateBounds" />
          </mxGeometry>
        </mxCell>
        <mxCell id="kQFly5nOHBlgn8fQaP0r-5" value="log" style="shape=partialRectangle;html=1;whiteSpace=wrap;connectable=0;strokeColor=inherit;overflow=hidden;fillColor=none;top=0;left=0;bottom=0;right=0;pointerEvents=1;" vertex="1" parent="kQFly5nOHBlgn8fQaP0r-2">
          <mxGeometry x="120" width="60" height="40" as="geometry">
            <mxRectangle width="60" height="40" as="alternateBounds" />
          </mxGeometry>
        </mxCell>
        <mxCell id="kQFly5nOHBlgn8fQaP0r-6" value="" style="shape=partialRectangle;html=1;whiteSpace=wrap;connectable=0;strokeColor=inherit;overflow=hidden;fillColor=none;top=0;left=0;bottom=0;right=0;pointerEvents=1;" vertex="1" parent="kQFly5nOHBlgn8fQaP0r-2">
          <mxGeometry x="180" width="60" height="40" as="geometry">
            <mxRectangle width="60" height="40" as="alternateBounds" />
          </mxGeometry>
        </mxCell>
        <mxCell id="kQFly5nOHBlgn8fQaP0r-7" value="" style="shape=partialRectangle;html=1;whiteSpace=wrap;connectable=0;strokeColor=inherit;overflow=hidden;fillColor=none;top=0;left=0;bottom=0;right=0;pointerEvents=1;" vertex="1" parent="kQFly5nOHBlgn8fQaP0r-2">
          <mxGeometry x="240" width="60" height="40" as="geometry">
            <mxRectangle width="60" height="40" as="alternateBounds" />
          </mxGeometry>
        </mxCell>
        <mxCell id="kQFly5nOHBlgn8fQaP0r-8" value="" style="shape=partialRectangle;html=1;whiteSpace=wrap;connectable=0;strokeColor=inherit;overflow=hidden;fillColor=none;top=0;left=0;bottom=0;right=0;pointerEvents=1;" vertex="1" parent="kQFly5nOHBlgn8fQaP0r-2">
          <mxGeometry x="300" width="60" height="40" as="geometry">
            <mxRectangle width="60" height="40" as="alternateBounds" />
          </mxGeometry>
        </mxCell>
        <mxCell id="kQFly5nOHBlgn8fQaP0r-9" value="" style="shape=partialRectangle;html=1;whiteSpace=wrap;connectable=0;strokeColor=inherit;overflow=hidden;fillColor=none;top=0;left=0;bottom=0;right=0;pointerEvents=1;" vertex="1" parent="kQFly5nOHBlgn8fQaP0r-2">
          <mxGeometry x="360" width="60" height="40" as="geometry">
            <mxRectangle width="60" height="40" as="alternateBounds" />
          </mxGeometry>
        </mxCell>
        <mxCell id="kQFly5nOHBlgn8fQaP0r-10" value="" style="shape=partialRectangle;html=1;whiteSpace=wrap;connectable=0;strokeColor=inherit;overflow=hidden;fillColor=none;top=0;left=0;bottom=0;right=0;pointerEvents=1;" vertex="1" parent="kQFly5nOHBlgn8fQaP0r-2">
          <mxGeometry x="420" width="60" height="40" as="geometry">
            <mxRectangle width="60" height="40" as="alternateBounds" />
          </mxGeometry>
        </mxCell>
        <mxCell id="kQFly5nOHBlgn8fQaP0r-11" value="" style="shape=partialRectangle;html=1;whiteSpace=wrap;connectable=0;strokeColor=inherit;overflow=hidden;fillColor=none;top=0;left=0;bottom=0;right=0;pointerEvents=1;" vertex="1" parent="kQFly5nOHBlgn8fQaP0r-2">
          <mxGeometry x="480" width="60" height="40" as="geometry">
            <mxRectangle width="60" height="40" as="alternateBounds" />
          </mxGeometry>
        </mxCell>
        <mxCell id="kQFly5nOHBlgn8fQaP0r-12" value="" style="shape=partialRectangle;html=1;whiteSpace=wrap;connectable=0;strokeColor=inherit;overflow=hidden;fillColor=none;top=0;left=0;bottom=0;right=0;pointerEvents=1;" vertex="1" parent="kQFly5nOHBlgn8fQaP0r-2">
          <mxGeometry x="540" width="60" height="40" as="geometry">
            <mxRectangle width="60" height="40" as="alternateBounds" />
          </mxGeometry>
        </mxCell>
        <mxCell id="kQFly5nOHBlgn8fQaP0r-13" value="" style="shape=tableRow;horizontal=0;startSize=0;swimlaneHead=0;swimlaneBody=0;strokeColor=inherit;top=0;left=0;bottom=0;right=0;collapsible=0;dropTarget=0;fillColor=none;points=[[0,0.5],[1,0.5]];portConstraint=eastwest;" vertex="1" parent="kQFly5nOHBlgn8fQaP0r-1">
          <mxGeometry y="40" width="600" height="40" as="geometry" />
        </mxCell>
        <mxCell id="kQFly5nOHBlgn8fQaP0r-14" value="" style="shape=partialRectangle;html=1;whiteSpace=wrap;connectable=0;strokeColor=inherit;overflow=hidden;fillColor=none;top=0;left=0;bottom=0;right=0;pointerEvents=1;" vertex="1" parent="kQFly5nOHBlgn8fQaP0r-13">
          <mxGeometry width="60" height="40" as="geometry">
            <mxRectangle width="60" height="40" as="alternateBounds" />
          </mxGeometry>
        </mxCell>
        <mxCell id="kQFly5nOHBlgn8fQaP0r-15" value="" style="shape=partialRectangle;html=1;whiteSpace=wrap;connectable=0;strokeColor=inherit;overflow=hidden;fillColor=none;top=0;left=0;bottom=0;right=0;pointerEvents=1;" vertex="1" parent="kQFly5nOHBlgn8fQaP0r-13">
          <mxGeometry x="60" width="60" height="40" as="geometry">
            <mxRectangle width="60" height="40" as="alternateBounds" />
          </mxGeometry>
        </mxCell>
        <mxCell id="kQFly5nOHBlgn8fQaP0r-16" value="" style="shape=partialRectangle;html=1;whiteSpace=wrap;connectable=0;strokeColor=inherit;overflow=hidden;fillColor=none;top=0;left=0;bottom=0;right=0;pointerEvents=1;" vertex="1" parent="kQFly5nOHBlgn8fQaP0r-13">
          <mxGeometry x="120" width="60" height="40" as="geometry">
            <mxRectangle width="60" height="40" as="alternateBounds" />
          </mxGeometry>
        </mxCell>
        <mxCell id="kQFly5nOHBlgn8fQaP0r-17" value="" style="shape=partialRectangle;html=1;whiteSpace=wrap;connectable=0;strokeColor=inherit;overflow=hidden;fillColor=none;top=0;left=0;bottom=0;right=0;pointerEvents=1;" vertex="1" parent="kQFly5nOHBlgn8fQaP0r-13">
          <mxGeometry x="180" width="60" height="40" as="geometry">
            <mxRectangle width="60" height="40" as="alternateBounds" />
          </mxGeometry>
        </mxCell>
        <mxCell id="kQFly5nOHBlgn8fQaP0r-18" value="" style="shape=partialRectangle;html=1;whiteSpace=wrap;connectable=0;strokeColor=inherit;overflow=hidden;fillColor=none;top=0;left=0;bottom=0;right=0;pointerEvents=1;" vertex="1" parent="kQFly5nOHBlgn8fQaP0r-13">
          <mxGeometry x="240" width="60" height="40" as="geometry">
            <mxRectangle width="60" height="40" as="alternateBounds" />
          </mxGeometry>
        </mxCell>
        <mxCell id="kQFly5nOHBlgn8fQaP0r-19" value="" style="shape=partialRectangle;html=1;whiteSpace=wrap;connectable=0;strokeColor=inherit;overflow=hidden;fillColor=none;top=0;left=0;bottom=0;right=0;pointerEvents=1;" vertex="1" parent="kQFly5nOHBlgn8fQaP0r-13">
          <mxGeometry x="300" width="60" height="40" as="geometry">
            <mxRectangle width="60" height="40" as="alternateBounds" />
          </mxGeometry>
        </mxCell>
        <mxCell id="kQFly5nOHBlgn8fQaP0r-20" value="" style="shape=partialRectangle;html=1;whiteSpace=wrap;connectable=0;strokeColor=inherit;overflow=hidden;fillColor=none;top=0;left=0;bottom=0;right=0;pointerEvents=1;" vertex="1" parent="kQFly5nOHBlgn8fQaP0r-13">
          <mxGeometry x="360" width="60" height="40" as="geometry">
            <mxRectangle width="60" height="40" as="alternateBounds" />
          </mxGeometry>
        </mxCell>
        <mxCell id="kQFly5nOHBlgn8fQaP0r-21" value="" style="shape=partialRectangle;html=1;whiteSpace=wrap;connectable=0;strokeColor=inherit;overflow=hidden;fillColor=none;top=0;left=0;bottom=0;right=0;pointerEvents=1;" vertex="1" parent="kQFly5nOHBlgn8fQaP0r-13">
          <mxGeometry x="420" width="60" height="40" as="geometry">
            <mxRectangle width="60" height="40" as="alternateBounds" />
          </mxGeometry>
        </mxCell>
        <mxCell id="kQFly5nOHBlgn8fQaP0r-22" value="" style="shape=partialRectangle;html=1;whiteSpace=wrap;connectable=0;strokeColor=inherit;overflow=hidden;fillColor=none;top=0;left=0;bottom=0;right=0;pointerEvents=1;" vertex="1" parent="kQFly5nOHBlgn8fQaP0r-13">
          <mxGeometry x="480" width="60" height="40" as="geometry">
            <mxRectangle width="60" height="40" as="alternateBounds" />
          </mxGeometry>
        </mxCell>
        <mxCell id="kQFly5nOHBlgn8fQaP0r-23" value="" style="shape=partialRectangle;html=1;whiteSpace=wrap;connectable=0;strokeColor=inherit;overflow=hidden;fillColor=none;top=0;left=0;bottom=0;right=0;pointerEvents=1;" vertex="1" parent="kQFly5nOHBlgn8fQaP0r-13">
          <mxGeometry x="540" width="60" height="40" as="geometry">
            <mxRectangle width="60" height="40" as="alternateBounds" />
          </mxGeometry>
        </mxCell>
        <mxCell id="kQFly5nOHBlgn8fQaP0r-24" value="" style="shape=tableRow;horizontal=0;startSize=0;swimlaneHead=0;swimlaneBody=0;strokeColor=inherit;top=0;left=0;bottom=0;right=0;collapsible=0;dropTarget=0;fillColor=none;points=[[0,0.5],[1,0.5]];portConstraint=eastwest;" vertex="1" parent="kQFly5nOHBlgn8fQaP0r-1">
          <mxGeometry y="80" width="600" height="40" as="geometry" />
        </mxCell>
        <mxCell id="kQFly5nOHBlgn8fQaP0r-25" value="" style="shape=partialRectangle;html=1;whiteSpace=wrap;connectable=0;strokeColor=inherit;overflow=hidden;fillColor=none;top=0;left=0;bottom=0;right=0;pointerEvents=1;" vertex="1" parent="kQFly5nOHBlgn8fQaP0r-24">
          <mxGeometry width="60" height="40" as="geometry">
            <mxRectangle width="60" height="40" as="alternateBounds" />
          </mxGeometry>
        </mxCell>
        <mxCell id="kQFly5nOHBlgn8fQaP0r-26" value="" style="shape=partialRectangle;html=1;whiteSpace=wrap;connectable=0;strokeColor=inherit;overflow=hidden;fillColor=none;top=0;left=0;bottom=0;right=0;pointerEvents=1;" vertex="1" parent="kQFly5nOHBlgn8fQaP0r-24">
          <mxGeometry x="60" width="60" height="40" as="geometry">
            <mxRectangle width="60" height="40" as="alternateBounds" />
          </mxGeometry>
        </mxCell>
        <mxCell id="kQFly5nOHBlgn8fQaP0r-27" value="" style="shape=partialRectangle;html=1;whiteSpace=wrap;connectable=0;strokeColor=inherit;overflow=hidden;fillColor=none;top=0;left=0;bottom=0;right=0;pointerEvents=1;" vertex="1" parent="kQFly5nOHBlgn8fQaP0r-24">
          <mxGeometry x="120" width="60" height="40" as="geometry">
            <mxRectangle width="60" height="40" as="alternateBounds" />
          </mxGeometry>
        </mxCell>
        <mxCell id="kQFly5nOHBlgn8fQaP0r-28" value="" style="shape=partialRectangle;html=1;whiteSpace=wrap;connectable=0;strokeColor=inherit;overflow=hidden;fillColor=none;top=0;left=0;bottom=0;right=0;pointerEvents=1;" vertex="1" parent="kQFly5nOHBlgn8fQaP0r-24">
          <mxGeometry x="180" width="60" height="40" as="geometry">
            <mxRectangle width="60" height="40" as="alternateBounds" />
          </mxGeometry>
        </mxCell>
        <mxCell id="kQFly5nOHBlgn8fQaP0r-29" value="" style="shape=partialRectangle;html=1;whiteSpace=wrap;connectable=0;strokeColor=inherit;overflow=hidden;fillColor=none;top=0;left=0;bottom=0;right=0;pointerEvents=1;" vertex="1" parent="kQFly5nOHBlgn8fQaP0r-24">
          <mxGeometry x="240" width="60" height="40" as="geometry">
            <mxRectangle width="60" height="40" as="alternateBounds" />
          </mxGeometry>
        </mxCell>
        <mxCell id="kQFly5nOHBlgn8fQaP0r-30" value="" style="shape=partialRectangle;html=1;whiteSpace=wrap;connectable=0;strokeColor=inherit;overflow=hidden;fillColor=none;top=0;left=0;bottom=0;right=0;pointerEvents=1;" vertex="1" parent="kQFly5nOHBlgn8fQaP0r-24">
          <mxGeometry x="300" width="60" height="40" as="geometry">
            <mxRectangle width="60" height="40" as="alternateBounds" />
          </mxGeometry>
        </mxCell>
        <mxCell id="kQFly5nOHBlgn8fQaP0r-31" value="" style="shape=partialRectangle;html=1;whiteSpace=wrap;connectable=0;strokeColor=inherit;overflow=hidden;fillColor=none;top=0;left=0;bottom=0;right=0;pointerEvents=1;" vertex="1" parent="kQFly5nOHBlgn8fQaP0r-24">
          <mxGeometry x="360" width="60" height="40" as="geometry">
            <mxRectangle width="60" height="40" as="alternateBounds" />
          </mxGeometry>
        </mxCell>
        <mxCell id="kQFly5nOHBlgn8fQaP0r-32" value="" style="shape=partialRectangle;html=1;whiteSpace=wrap;connectable=0;strokeColor=inherit;overflow=hidden;fillColor=none;top=0;left=0;bottom=0;right=0;pointerEvents=1;" vertex="1" parent="kQFly5nOHBlgn8fQaP0r-24">
          <mxGeometry x="420" width="60" height="40" as="geometry">
            <mxRectangle width="60" height="40" as="alternateBounds" />
          </mxGeometry>
        </mxCell>
        <mxCell id="kQFly5nOHBlgn8fQaP0r-33" value="" style="shape=partialRectangle;html=1;whiteSpace=wrap;connectable=0;strokeColor=inherit;overflow=hidden;fillColor=none;top=0;left=0;bottom=0;right=0;pointerEvents=1;" vertex="1" parent="kQFly5nOHBlgn8fQaP0r-24">
          <mxGeometry x="480" width="60" height="40" as="geometry">
            <mxRectangle width="60" height="40" as="alternateBounds" />
          </mxGeometry>
        </mxCell>
        <mxCell id="kQFly5nOHBlgn8fQaP0r-34" value="" style="shape=partialRectangle;html=1;whiteSpace=wrap;connectable=0;strokeColor=inherit;overflow=hidden;fillColor=none;top=0;left=0;bottom=0;right=0;pointerEvents=1;" vertex="1" parent="kQFly5nOHBlgn8fQaP0r-24">
          <mxGeometry x="540" width="60" height="40" as="geometry">
            <mxRectangle width="60" height="40" as="alternateBounds" />
          </mxGeometry>
        </mxCell>
        <mxCell id="kQFly5nOHBlgn8fQaP0r-35" value="" style="shape=tableRow;horizontal=0;startSize=0;swimlaneHead=0;swimlaneBody=0;strokeColor=inherit;top=0;left=0;bottom=0;right=0;collapsible=0;dropTarget=0;fillColor=none;points=[[0,0.5],[1,0.5]];portConstraint=eastwest;" vertex="1" parent="kQFly5nOHBlgn8fQaP0r-1">
          <mxGeometry y="120" width="600" height="40" as="geometry" />
        </mxCell>
        <mxCell id="kQFly5nOHBlgn8fQaP0r-36" value="" style="shape=partialRectangle;html=1;whiteSpace=wrap;connectable=0;strokeColor=inherit;overflow=hidden;fillColor=none;top=0;left=0;bottom=0;right=0;pointerEvents=1;" vertex="1" parent="kQFly5nOHBlgn8fQaP0r-35">
          <mxGeometry width="60" height="40" as="geometry">
            <mxRectangle width="60" height="40" as="alternateBounds" />
          </mxGeometry>
        </mxCell>
        <mxCell id="kQFly5nOHBlgn8fQaP0r-37" value="" style="shape=partialRectangle;html=1;whiteSpace=wrap;connectable=0;strokeColor=inherit;overflow=hidden;fillColor=none;top=0;left=0;bottom=0;right=0;pointerEvents=1;" vertex="1" parent="kQFly5nOHBlgn8fQaP0r-35">
          <mxGeometry x="60" width="60" height="40" as="geometry">
            <mxRectangle width="60" height="40" as="alternateBounds" />
          </mxGeometry>
        </mxCell>
        <mxCell id="kQFly5nOHBlgn8fQaP0r-38" value="inode" style="shape=partialRectangle;html=1;whiteSpace=wrap;connectable=0;strokeColor=inherit;overflow=hidden;fillColor=none;top=0;left=0;bottom=0;right=0;pointerEvents=1;" vertex="1" parent="kQFly5nOHBlgn8fQaP0r-35">
          <mxGeometry x="120" width="60" height="40" as="geometry">
            <mxRectangle width="60" height="40" as="alternateBounds" />
          </mxGeometry>
        </mxCell>
        <mxCell id="kQFly5nOHBlgn8fQaP0r-39" value="" style="shape=partialRectangle;html=1;whiteSpace=wrap;connectable=0;strokeColor=inherit;overflow=hidden;fillColor=none;top=0;left=0;bottom=0;right=0;pointerEvents=1;" vertex="1" parent="kQFly5nOHBlgn8fQaP0r-35">
          <mxGeometry x="180" width="60" height="40" as="geometry">
            <mxRectangle width="60" height="40" as="alternateBounds" />
          </mxGeometry>
        </mxCell>
        <mxCell id="kQFly5nOHBlgn8fQaP0r-40" value="" style="shape=partialRectangle;html=1;whiteSpace=wrap;connectable=0;strokeColor=inherit;overflow=hidden;fillColor=none;top=0;left=0;bottom=0;right=0;pointerEvents=1;" vertex="1" parent="kQFly5nOHBlgn8fQaP0r-35">
          <mxGeometry x="240" width="60" height="40" as="geometry">
            <mxRectangle width="60" height="40" as="alternateBounds" />
          </mxGeometry>
        </mxCell>
        <mxCell id="kQFly5nOHBlgn8fQaP0r-41" value="" style="shape=partialRectangle;html=1;whiteSpace=wrap;connectable=0;strokeColor=inherit;overflow=hidden;fillColor=none;top=0;left=0;bottom=0;right=0;pointerEvents=1;" vertex="1" parent="kQFly5nOHBlgn8fQaP0r-35">
          <mxGeometry x="300" width="60" height="40" as="geometry">
            <mxRectangle width="60" height="40" as="alternateBounds" />
          </mxGeometry>
        </mxCell>
        <mxCell id="kQFly5nOHBlgn8fQaP0r-42" value="" style="shape=partialRectangle;html=1;whiteSpace=wrap;connectable=0;strokeColor=inherit;overflow=hidden;fillColor=none;top=0;left=0;bottom=0;right=0;pointerEvents=1;" vertex="1" parent="kQFly5nOHBlgn8fQaP0r-35">
          <mxGeometry x="360" width="60" height="40" as="geometry">
            <mxRectangle width="60" height="40" as="alternateBounds" />
          </mxGeometry>
        </mxCell>
        <mxCell id="kQFly5nOHBlgn8fQaP0r-43" value="" style="shape=partialRectangle;html=1;whiteSpace=wrap;connectable=0;strokeColor=inherit;overflow=hidden;fillColor=none;top=0;left=0;bottom=0;right=0;pointerEvents=1;" vertex="1" parent="kQFly5nOHBlgn8fQaP0r-35">
          <mxGeometry x="420" width="60" height="40" as="geometry">
            <mxRectangle width="60" height="40" as="alternateBounds" />
          </mxGeometry>
        </mxCell>
        <mxCell id="kQFly5nOHBlgn8fQaP0r-44" value="" style="shape=partialRectangle;html=1;whiteSpace=wrap;connectable=0;strokeColor=inherit;overflow=hidden;fillColor=none;top=0;left=0;bottom=0;right=0;pointerEvents=1;" vertex="1" parent="kQFly5nOHBlgn8fQaP0r-35">
          <mxGeometry x="480" width="60" height="40" as="geometry">
            <mxRectangle width="60" height="40" as="alternateBounds" />
          </mxGeometry>
        </mxCell>
        <mxCell id="kQFly5nOHBlgn8fQaP0r-45" value="" style="shape=partialRectangle;html=1;whiteSpace=wrap;connectable=0;strokeColor=inherit;overflow=hidden;fillColor=none;top=0;left=0;bottom=0;right=0;pointerEvents=1;" vertex="1" parent="kQFly5nOHBlgn8fQaP0r-35">
          <mxGeometry x="540" width="60" height="40" as="geometry">
            <mxRectangle width="60" height="40" as="alternateBounds" />
          </mxGeometry>
        </mxCell>
        <mxCell id="kQFly5nOHBlgn8fQaP0r-46" value="" style="shape=tableRow;horizontal=0;startSize=0;swimlaneHead=0;swimlaneBody=0;strokeColor=inherit;top=0;left=0;bottom=0;right=0;collapsible=0;dropTarget=0;fillColor=none;points=[[0,0.5],[1,0.5]];portConstraint=eastwest;" vertex="1" parent="kQFly5nOHBlgn8fQaP0r-1">
          <mxGeometry y="160" width="600" height="40" as="geometry" />
        </mxCell>
        <mxCell id="kQFly5nOHBlgn8fQaP0r-47" value="" style="shape=partialRectangle;html=1;whiteSpace=wrap;connectable=0;strokeColor=inherit;overflow=hidden;fillColor=none;top=0;left=0;bottom=0;right=0;pointerEvents=1;" vertex="1" parent="kQFly5nOHBlgn8fQaP0r-46">
          <mxGeometry width="60" height="40" as="geometry">
            <mxRectangle width="60" height="40" as="alternateBounds" />
          </mxGeometry>
        </mxCell>
        <mxCell id="kQFly5nOHBlgn8fQaP0r-48" value="" style="shape=partialRectangle;html=1;whiteSpace=wrap;connectable=0;strokeColor=inherit;overflow=hidden;fillColor=none;top=0;left=0;bottom=0;right=0;pointerEvents=1;" vertex="1" parent="kQFly5nOHBlgn8fQaP0r-46">
          <mxGeometry x="60" width="60" height="40" as="geometry">
            <mxRectangle width="60" height="40" as="alternateBounds" />
          </mxGeometry>
        </mxCell>
        <mxCell id="kQFly5nOHBlgn8fQaP0r-49" value="" style="shape=partialRectangle;html=1;whiteSpace=wrap;connectable=0;strokeColor=inherit;overflow=hidden;fillColor=none;top=0;left=0;bottom=0;right=0;pointerEvents=1;" vertex="1" parent="kQFly5nOHBlgn8fQaP0r-46">
          <mxGeometry x="120" width="60" height="40" as="geometry">
            <mxRectangle width="60" height="40" as="alternateBounds" />
          </mxGeometry>
        </mxCell>
        <mxCell id="kQFly5nOHBlgn8fQaP0r-50" value="" style="shape=partialRectangle;html=1;whiteSpace=wrap;connectable=0;strokeColor=inherit;overflow=hidden;fillColor=none;top=0;left=0;bottom=0;right=0;pointerEvents=1;" vertex="1" parent="kQFly5nOHBlgn8fQaP0r-46">
          <mxGeometry x="180" width="60" height="40" as="geometry">
            <mxRectangle width="60" height="40" as="alternateBounds" />
          </mxGeometry>
        </mxCell>
        <mxCell id="kQFly5nOHBlgn8fQaP0r-51" value="" style="shape=partialRectangle;html=1;whiteSpace=wrap;connectable=0;strokeColor=inherit;overflow=hidden;fillColor=none;top=0;left=0;bottom=0;right=0;pointerEvents=1;" vertex="1" parent="kQFly5nOHBlgn8fQaP0r-46">
          <mxGeometry x="240" width="60" height="40" as="geometry">
            <mxRectangle width="60" height="40" as="alternateBounds" />
          </mxGeometry>
        </mxCell>
        <mxCell id="kQFly5nOHBlgn8fQaP0r-52" value="bitmap" style="shape=partialRectangle;html=1;whiteSpace=wrap;connectable=0;strokeColor=inherit;overflow=hidden;fillColor=none;top=0;left=0;bottom=0;right=0;pointerEvents=1;" vertex="1" parent="kQFly5nOHBlgn8fQaP0r-46">
          <mxGeometry x="300" width="60" height="40" as="geometry">
            <mxRectangle width="60" height="40" as="alternateBounds" />
          </mxGeometry>
        </mxCell>
        <mxCell id="kQFly5nOHBlgn8fQaP0r-53" value="data" style="shape=partialRectangle;html=1;whiteSpace=wrap;connectable=0;strokeColor=inherit;overflow=hidden;fillColor=none;top=0;left=0;bottom=0;right=0;pointerEvents=1;" vertex="1" parent="kQFly5nOHBlgn8fQaP0r-46">
          <mxGeometry x="360" width="60" height="40" as="geometry">
            <mxRectangle width="60" height="40" as="alternateBounds" />
          </mxGeometry>
        </mxCell>
        <mxCell id="kQFly5nOHBlgn8fQaP0r-54" value="" style="shape=partialRectangle;html=1;whiteSpace=wrap;connectable=0;strokeColor=inherit;overflow=hidden;fillColor=none;top=0;left=0;bottom=0;right=0;pointerEvents=1;" vertex="1" parent="kQFly5nOHBlgn8fQaP0r-46">
          <mxGeometry x="420" width="60" height="40" as="geometry">
            <mxRectangle width="60" height="40" as="alternateBounds" />
          </mxGeometry>
        </mxCell>
        <mxCell id="kQFly5nOHBlgn8fQaP0r-55" value="" style="shape=partialRectangle;html=1;whiteSpace=wrap;connectable=0;strokeColor=inherit;overflow=hidden;fillColor=none;top=0;left=0;bottom=0;right=0;pointerEvents=1;" vertex="1" parent="kQFly5nOHBlgn8fQaP0r-46">
          <mxGeometry x="480" width="60" height="40" as="geometry">
            <mxRectangle width="60" height="40" as="alternateBounds" />
          </mxGeometry>
        </mxCell>
        <mxCell id="kQFly5nOHBlgn8fQaP0r-56" value="" style="shape=partialRectangle;html=1;whiteSpace=wrap;connectable=0;strokeColor=inherit;overflow=hidden;fillColor=none;top=0;left=0;bottom=0;right=0;pointerEvents=1;" vertex="1" parent="kQFly5nOHBlgn8fQaP0r-46">
          <mxGeometry x="540" width="60" height="40" as="geometry">
            <mxRectangle width="60" height="40" as="alternateBounds" />
          </mxGeometry>
        </mxCell>
        <mxCell id="kQFly5nOHBlgn8fQaP0r-57" value="" style="shape=tableRow;horizontal=0;startSize=0;swimlaneHead=0;swimlaneBody=0;strokeColor=inherit;top=0;left=0;bottom=0;right=0;collapsible=0;dropTarget=0;fillColor=none;points=[[0,0.5],[1,0.5]];portConstraint=eastwest;" vertex="1" parent="kQFly5nOHBlgn8fQaP0r-1">
          <mxGeometry y="200" width="600" height="40" as="geometry" />
        </mxCell>
        <mxCell id="kQFly5nOHBlgn8fQaP0r-58" value="" style="shape=partialRectangle;html=1;whiteSpace=wrap;connectable=0;strokeColor=inherit;overflow=hidden;fillColor=none;top=0;left=0;bottom=0;right=0;pointerEvents=1;" vertex="1" parent="kQFly5nOHBlgn8fQaP0r-57">
          <mxGeometry width="60" height="40" as="geometry">
            <mxRectangle width="60" height="40" as="alternateBounds" />
          </mxGeometry>
        </mxCell>
        <mxCell id="kQFly5nOHBlgn8fQaP0r-59" value="" style="shape=partialRectangle;html=1;whiteSpace=wrap;connectable=0;strokeColor=inherit;overflow=hidden;fillColor=none;top=0;left=0;bottom=0;right=0;pointerEvents=1;" vertex="1" parent="kQFly5nOHBlgn8fQaP0r-57">
          <mxGeometry x="60" width="60" height="40" as="geometry">
            <mxRectangle width="60" height="40" as="alternateBounds" />
          </mxGeometry>
        </mxCell>
        <mxCell id="kQFly5nOHBlgn8fQaP0r-60" value="" style="shape=partialRectangle;html=1;whiteSpace=wrap;connectable=0;strokeColor=inherit;overflow=hidden;fillColor=none;top=0;left=0;bottom=0;right=0;pointerEvents=1;" vertex="1" parent="kQFly5nOHBlgn8fQaP0r-57">
          <mxGeometry x="120" width="60" height="40" as="geometry">
            <mxRectangle width="60" height="40" as="alternateBounds" />
          </mxGeometry>
        </mxCell>
        <mxCell id="kQFly5nOHBlgn8fQaP0r-61" value="" style="shape=partialRectangle;html=1;whiteSpace=wrap;connectable=0;strokeColor=inherit;overflow=hidden;fillColor=none;top=0;left=0;bottom=0;right=0;pointerEvents=1;" vertex="1" parent="kQFly5nOHBlgn8fQaP0r-57">
          <mxGeometry x="180" width="60" height="40" as="geometry">
            <mxRectangle width="60" height="40" as="alternateBounds" />
          </mxGeometry>
        </mxCell>
        <mxCell id="kQFly5nOHBlgn8fQaP0r-62" value="" style="shape=partialRectangle;html=1;whiteSpace=wrap;connectable=0;strokeColor=inherit;overflow=hidden;fillColor=none;top=0;left=0;bottom=0;right=0;pointerEvents=1;" vertex="1" parent="kQFly5nOHBlgn8fQaP0r-57">
          <mxGeometry x="240" width="60" height="40" as="geometry">
            <mxRectangle width="60" height="40" as="alternateBounds" />
          </mxGeometry>
        </mxCell>
        <mxCell id="kQFly5nOHBlgn8fQaP0r-63" value="" style="shape=partialRectangle;html=1;whiteSpace=wrap;connectable=0;strokeColor=inherit;overflow=hidden;fillColor=none;top=0;left=0;bottom=0;right=0;pointerEvents=1;" vertex="1" parent="kQFly5nOHBlgn8fQaP0r-57">
          <mxGeometry x="300" width="60" height="40" as="geometry">
            <mxRectangle width="60" height="40" as="alternateBounds" />
          </mxGeometry>
        </mxCell>
        <mxCell id="kQFly5nOHBlgn8fQaP0r-64" value="" style="shape=partialRectangle;html=1;whiteSpace=wrap;connectable=0;strokeColor=inherit;overflow=hidden;fillColor=none;top=0;left=0;bottom=0;right=0;pointerEvents=1;" vertex="1" parent="kQFly5nOHBlgn8fQaP0r-57">
          <mxGeometry x="360" width="60" height="40" as="geometry">
            <mxRectangle width="60" height="40" as="alternateBounds" />
          </mxGeometry>
        </mxCell>
        <mxCell id="kQFly5nOHBlgn8fQaP0r-65" value="" style="shape=partialRectangle;html=1;whiteSpace=wrap;connectable=0;strokeColor=inherit;overflow=hidden;fillColor=none;top=0;left=0;bottom=0;right=0;pointerEvents=1;" vertex="1" parent="kQFly5nOHBlgn8fQaP0r-57">
          <mxGeometry x="420" width="60" height="40" as="geometry">
            <mxRectangle width="60" height="40" as="alternateBounds" />
          </mxGeometry>
        </mxCell>
        <mxCell id="kQFly5nOHBlgn8fQaP0r-66" value="" style="shape=partialRectangle;html=1;whiteSpace=wrap;connectable=0;strokeColor=inherit;overflow=hidden;fillColor=none;top=0;left=0;bottom=0;right=0;pointerEvents=1;" vertex="1" parent="kQFly5nOHBlgn8fQaP0r-57">
          <mxGeometry x="480" width="60" height="40" as="geometry">
            <mxRectangle width="60" height="40" as="alternateBounds" />
          </mxGeometry>
        </mxCell>
        <mxCell id="kQFly5nOHBlgn8fQaP0r-67" value="" style="shape=partialRectangle;html=1;whiteSpace=wrap;connectable=0;strokeColor=inherit;overflow=hidden;fillColor=none;top=0;left=0;bottom=0;right=0;pointerEvents=1;" vertex="1" parent="kQFly5nOHBlgn8fQaP0r-57">
          <mxGeometry x="540" width="60" height="40" as="geometry">
            <mxRectangle width="60" height="40" as="alternateBounds" />
          </mxGeometry>
        </mxCell>
        <mxCell id="kQFly5nOHBlgn8fQaP0r-68" value="" style="shape=tableRow;horizontal=0;startSize=0;swimlaneHead=0;swimlaneBody=0;strokeColor=inherit;top=0;left=0;bottom=0;right=0;collapsible=0;dropTarget=0;fillColor=none;points=[[0,0.5],[1,0.5]];portConstraint=eastwest;" vertex="1" parent="kQFly5nOHBlgn8fQaP0r-1">
          <mxGeometry y="240" width="600" height="40" as="geometry" />
        </mxCell>
        <mxCell id="kQFly5nOHBlgn8fQaP0r-69" value="" style="shape=partialRectangle;html=1;whiteSpace=wrap;connectable=0;strokeColor=inherit;overflow=hidden;fillColor=none;top=0;left=0;bottom=0;right=0;pointerEvents=1;" vertex="1" parent="kQFly5nOHBlgn8fQaP0r-68">
          <mxGeometry width="60" height="40" as="geometry">
            <mxRectangle width="60" height="40" as="alternateBounds" />
          </mxGeometry>
        </mxCell>
        <mxCell id="kQFly5nOHBlgn8fQaP0r-70" value="" style="shape=partialRectangle;html=1;whiteSpace=wrap;connectable=0;strokeColor=inherit;overflow=hidden;fillColor=none;top=0;left=0;bottom=0;right=0;pointerEvents=1;" vertex="1" parent="kQFly5nOHBlgn8fQaP0r-68">
          <mxGeometry x="60" width="60" height="40" as="geometry">
            <mxRectangle width="60" height="40" as="alternateBounds" />
          </mxGeometry>
        </mxCell>
        <mxCell id="kQFly5nOHBlgn8fQaP0r-71" value="" style="shape=partialRectangle;html=1;whiteSpace=wrap;connectable=0;strokeColor=inherit;overflow=hidden;fillColor=none;top=0;left=0;bottom=0;right=0;pointerEvents=1;" vertex="1" parent="kQFly5nOHBlgn8fQaP0r-68">
          <mxGeometry x="120" width="60" height="40" as="geometry">
            <mxRectangle width="60" height="40" as="alternateBounds" />
          </mxGeometry>
        </mxCell>
        <mxCell id="kQFly5nOHBlgn8fQaP0r-72" value="" style="shape=partialRectangle;html=1;whiteSpace=wrap;connectable=0;strokeColor=inherit;overflow=hidden;fillColor=none;top=0;left=0;bottom=0;right=0;pointerEvents=1;" vertex="1" parent="kQFly5nOHBlgn8fQaP0r-68">
          <mxGeometry x="180" width="60" height="40" as="geometry">
            <mxRectangle width="60" height="40" as="alternateBounds" />
          </mxGeometry>
        </mxCell>
        <mxCell id="kQFly5nOHBlgn8fQaP0r-73" value="" style="shape=partialRectangle;html=1;whiteSpace=wrap;connectable=0;strokeColor=inherit;overflow=hidden;fillColor=none;top=0;left=0;bottom=0;right=0;pointerEvents=1;" vertex="1" parent="kQFly5nOHBlgn8fQaP0r-68">
          <mxGeometry x="240" width="60" height="40" as="geometry">
            <mxRectangle width="60" height="40" as="alternateBounds" />
          </mxGeometry>
        </mxCell>
        <mxCell id="kQFly5nOHBlgn8fQaP0r-74" value="" style="shape=partialRectangle;html=1;whiteSpace=wrap;connectable=0;strokeColor=inherit;overflow=hidden;fillColor=none;top=0;left=0;bottom=0;right=0;pointerEvents=1;" vertex="1" parent="kQFly5nOHBlgn8fQaP0r-68">
          <mxGeometry x="300" width="60" height="40" as="geometry">
            <mxRectangle width="60" height="40" as="alternateBounds" />
          </mxGeometry>
        </mxCell>
        <mxCell id="kQFly5nOHBlgn8fQaP0r-75" value="" style="shape=partialRectangle;html=1;whiteSpace=wrap;connectable=0;strokeColor=inherit;overflow=hidden;fillColor=none;top=0;left=0;bottom=0;right=0;pointerEvents=1;" vertex="1" parent="kQFly5nOHBlgn8fQaP0r-68">
          <mxGeometry x="360" width="60" height="40" as="geometry">
            <mxRectangle width="60" height="40" as="alternateBounds" />
          </mxGeometry>
        </mxCell>
        <mxCell id="kQFly5nOHBlgn8fQaP0r-76" value="" style="shape=partialRectangle;html=1;whiteSpace=wrap;connectable=0;strokeColor=inherit;overflow=hidden;fillColor=none;top=0;left=0;bottom=0;right=0;pointerEvents=1;" vertex="1" parent="kQFly5nOHBlgn8fQaP0r-68">
          <mxGeometry x="420" width="60" height="40" as="geometry">
            <mxRectangle width="60" height="40" as="alternateBounds" />
          </mxGeometry>
        </mxCell>
        <mxCell id="kQFly5nOHBlgn8fQaP0r-77" value="" style="shape=partialRectangle;html=1;whiteSpace=wrap;connectable=0;strokeColor=inherit;overflow=hidden;fillColor=none;top=0;left=0;bottom=0;right=0;pointerEvents=1;" vertex="1" parent="kQFly5nOHBlgn8fQaP0r-68">
          <mxGeometry x="480" width="60" height="40" as="geometry">
            <mxRectangle width="60" height="40" as="alternateBounds" />
          </mxGeometry>
        </mxCell>
        <mxCell id="kQFly5nOHBlgn8fQaP0r-78" value="" style="shape=partialRectangle;html=1;whiteSpace=wrap;connectable=0;strokeColor=inherit;overflow=hidden;fillColor=none;top=0;left=0;bottom=0;right=0;pointerEvents=1;" vertex="1" parent="kQFly5nOHBlgn8fQaP0r-68">
          <mxGeometry x="540" width="60" height="40" as="geometry">
            <mxRectangle width="60" height="40" as="alternateBounds" />
          </mxGeometry>
        </mxCell>
      </root>
    </mxGraphModel>
  </diagram>
</mxfile>
